Coordinates
version=1
nRows=4
nColumns=107
inDegrees=yes

Units are S.I. units (second, meters, Newtons, ...)
If the header above contains a line with 'inDegrees', this indicates whether rotational values are in degrees (yes) or radians (no).

endheader
time	sternoclavicular_r2	sternoclavicular_r3	unrotscap_r3	unrotscap_r2	acromioclavicular_r2	acromioclavicular_r3	acromioclavicular_r1	unrothum_r1	unrothum_r3	unrothum_r2	elv_angle	shoulder_elv	shoulder1_r2	shoulder_rot	elbow_flexion	pro_sup	deviation	flexion	proximal_distal_r1	proximal_distal_r3	cmc_flexion	cmc_abduction	mp_flexion	ip_flexion	mcp2_flexion	mcp2_abduction	pm2_flexion	md2_flexion	mcp3_flexion	mcp3_abduction	pm3_flexion	md3_flexion	mcp4_flexion	mcp4_abduction	pm4_flexion	md4_flexion	mcp5_flexion	mcp5_abduction	pm5_flexion	md5_flexion	bicpt_tx	bicpt_ty	bicpt_tz	bicpt2_tx	bicpt2_ty	bicpt2_tz	ptpt_tx	ptpt_ty	ptpt_tz	FCUpt_tx	FCUpt_ty	FCUpt_tz	EDCpt_tx	EDCpt_ty	EDCpt_tz	APLpt_tx	APLpt_ty	APLpt_tz	FPLpt_tx	FPLpt_ty	FPLpt_tz	FPLpt2_tx	FPLpt2_ty	FPLpt2_tz	PEC1pt2_tx	PEC1pt2_ty	PEC1pt2_tz	PEC1pt3_tx	PEC1pt3_ty	PEC1pt3_tz	PEC2pt2_tx	PEC2pt2_ty	PEC2pt2_tz	PEC2pt3_tx	PEC2pt3_ty	PEC2pt3_tz	PEC3pt2_tx	PEC3pt2_ty	PEC3pt2_tz	PEC3pt3_tx	PEC3pt3_ty	PEC3pt3_tz	DELT2pt2a_tx	DELT2pt2a_ty	DELT2pt2a_tz	DELT2pt2_tx	DELT2pt2_ty	DELT2pt2_tz	LAT1pt2_tx	LAT1pt2_ty	LAT1pt2_tz	LAT1pt3_tx	LAT1pt3_ty	LAT1pt3_tz	LAT2pt2_tx	LAT2pt2_ty	LAT2pt2_tz	LAT2pt3_tx	LAT2pt3_ty	LAT2pt3_tz	LAT3pt2_tx	LAT3pt2_ty	LAT3pt2_tz	LAT3pt3_tx	LAT3pt3_ty	LAT3pt3_tz
      0.53333333	     -0.32269586	      0.13667873	     -0.13667873	      0.32269586	     -0.06533935	      0.52804962	      0.23735467	     -0.23735467	     -0.52804962	      0.06533935	     99.13178320	     76.40111264	     -1.73017601	    -23.04815684	     28.11057599	     31.51191771	      0.11865073	     -1.06072158	      0.14950314	     -0.53036079	     -3.18957743	     -1.68467986	    -34.73564530	    -49.83277494	     77.35037357	     12.11066377	     86.33405831	     81.98398815	     81.11683085	      3.80977318	     84.03454363	     42.56467570	     76.54367425	    -10.01440872	     95.12486630	     33.20046951	     73.31003586	    -12.99186545	     88.34795711	      5.68062470	      0.00082981	     -0.03082190	     -0.00481896	      0.01647614	     -0.01783638	     -0.00832564	      0.00522162	     -0.06640557	     -0.00258845	      0.00693679	     -0.18366141	     -0.00029904	     -0.00378142	      0.00104608	      0.00018783	      0.00014302	      0.00005721	      0.00028605	      0.00018307	      0.00054921	      0.00030893	     -0.00017574	      0.00008539	      0.00010247	      0.00250426	      0.00878614	      0.00611209	     -0.00819190	      0.01977942	     -0.01876073	      0.00250426	      0.00878614	      0.00611209	      0.00055179	      0.01833628	     -0.00963504	      0.00395679	      0.00488586	      0.01598925	      0.00000000	      0.00780670	      0.00000000	     -0.00717322	     -0.03314962	     -0.00643713	      0.01547311	     -0.00052735	     -0.00442795	     -0.00089135	      0.01494067	     -0.00611209	      0.00246182	      0.02156211	     -0.01782694	     -0.00598476	      0.01294576	     -0.00547542	     -0.01247886	      0.02733464	     -0.03060292	     -0.02342969	      0.01447378	     -0.00734300	     -0.01553491	      0.03157915	     -0.03824303
      0.56666667	     -0.32309872	      0.13684937	     -0.13684937	      0.32309872	     -0.06542092	      0.52870885	      0.23765099	     -0.23765099	     -0.52870885	      0.06542092	     98.98080000	     76.49649362	     -1.72754086	    -22.58653754	     28.17372100	     30.29413971	      0.10772203	     -1.06523998	      0.13669518	     -0.53261999	     -3.50332821	     -1.83602195	    -34.86587391	    -49.82810317	     77.53956534	     12.16791381	     86.32513003	     80.91875453	     80.09511882	      3.76415824	     83.88537976	     42.15274782	     76.69614022	     -9.96812722	     96.59634032	     33.03079195	     72.89840316	    -12.96321122	     89.21265044	      5.67404183	      0.00083190	     -0.03082914	     -0.00482013	      0.01644852	     -0.01785353	     -0.00844011	      0.00531160	     -0.06634738	     -0.00249036	      0.00681760	     -0.18368359	     -0.00028205	     -0.00363529	      0.00099996	      0.00019057	      0.00013960	      0.00005584	      0.00027921	      0.00017869	      0.00053607	      0.00030154	     -0.00020315	      0.00009440	      0.00011328	      0.00250739	      0.00879710	      0.00611972	     -0.00820213	      0.01980411	     -0.01878415	      0.00250739	      0.00879710	      0.00611972	      0.00055248	      0.01835917	     -0.00964707	      0.00396039	      0.00489196	      0.01599801	      0.00000000	      0.00782634	      0.00000000	     -0.00718218	     -0.03319101	     -0.00645344	      0.01522409	     -0.00051268	     -0.00424787	     -0.00089246	      0.01495933	     -0.00611972	      0.00246489	      0.02158903	     -0.01784920	     -0.00599223	      0.01296192	     -0.00548225	     -0.01249444	      0.02736877	     -0.03064112	     -0.02345894	      0.01449185	     -0.00735217	     -0.01555430	      0.03161858	     -0.03829078
      0.60000000	     -0.32312628	      0.13686104	     -0.13686104	      0.32312628	     -0.06542650	      0.52875395	      0.23767126	     -0.23767126	     -0.52875395	      0.06542650	     98.96360064	     76.50301860	     -1.72724067	    -22.53617512	     28.19016221	     30.41974784	      0.10897363	     -1.06566402	      0.13817258	     -0.53283201	     -3.48281421	     -1.83384101	    -34.85240984	    -49.82066131	     77.13712071	     12.16269890	     86.32465414	     80.99978044	     81.10156148	      3.76314422	     83.89699436	     42.16247932	     76.11490856	     -9.97076697	     96.20623387	     33.01546696	     72.78858843	    -12.96760102	     89.14445995	      5.67332514	      0.00083244	     -0.03083102	     -0.00482043	      0.01645152	     -0.01785800	     -0.00842839	      0.00530232	     -0.06635338	     -0.00250047	      0.00682987	     -0.18368133	     -0.00028385	     -0.00365036	      0.00100469	      0.00019033	      0.00013928	      0.00005571	      0.00027856	      0.00017828	      0.00053483	      0.00030084	     -0.00020128	      0.00009381	      0.00011257	      0.00250760	      0.00879785	      0.00612025	     -0.00820283	      0.01980580	     -0.01878576	      0.00250760	      0.00879785	      0.00612025	      0.00055252	      0.01836074	     -0.00964789	      0.00396064	      0.00489238	      0.01599861	      0.00000000	      0.00782769	      0.00000000	     -0.00718279	     -0.03319384	     -0.00645455	      0.01519675	     -0.00051108	     -0.00422841	     -0.00089254	      0.01496060	     -0.00612025	      0.00246510	      0.02159087	     -0.01785072	     -0.00599274	      0.01296302	     -0.00548272	     -0.01249550	      0.02737110	     -0.03064374	     -0.02346095	      0.01449308	     -0.00735280	     -0.01555563	      0.03162127	     -0.03829404
      0.63333333	     -0.32525633	      0.13776323	     -0.13776323	      0.32525633	     -0.06585779	      0.53223951	      0.23923799	     -0.23923799	     -0.53223951	      0.06585779	     98.59445253	     77.00732842	     -1.72079782	    -19.93129922	     27.94796666	     28.48921289	      0.13225583	     -1.06436508	      0.16517319	     -0.53218254	     -2.95423016	     -1.69864383	    -34.80609581	    -49.87868565	     77.50417670	     12.13758040	     86.31843544	     81.76452924	     81.43319685	      3.88276228	     83.98174850	     43.11445837	     76.98343395	    -10.01905836	     94.87505296	     34.83888985	     73.47316001	    -12.97355048	     88.22700158	      5.67024694	      0.00082443	     -0.03080326	     -0.00481596	      0.01640135	     -0.01779220	     -0.00860594	      0.00544497	     -0.06626115	     -0.00234496	      0.00664179	     -0.18371570	     -0.00025482	     -0.00341870	      0.00093244	      0.00019315	      0.00014027	      0.00005611	      0.00028054	      0.00017954	      0.00053863	      0.00030298	     -0.00015653	      0.00007870	      0.00009444	      0.00252413	      0.00885585	      0.00616059	     -0.00825690	      0.01993636	     -0.01890959	      0.00252413	      0.00885585	      0.00616059	      0.00055616	      0.01848177	     -0.00971149	      0.00397962	      0.00492463	      0.01604457	      0.00000000	      0.00793197	      0.00000000	     -0.00723014	     -0.03341265	     -0.00654112	      0.01373658	     -0.00042983	     -0.00327437	     -0.00089842	      0.01505922	     -0.00616059	      0.00248135	      0.02173320	     -0.01796839	     -0.00603225	      0.01304848	     -0.00551886	     -0.01257787	      0.02755153	     -0.03084574	     -0.02361560	      0.01458862	     -0.00740127	     -0.01565817	      0.03182972	     -0.03854648
